<svg width="13" height="14" viewBox="0 0 13 14" fill="none" xmlns="http://www.w3.org/2000/svg">
<path d="M9.86875 1.89375C8.975 2.05625 8.76875 2.21875 7.875 2.21875C7.325 2.21875 6.84375 1 6.84375 1H6.15625C6.15625 1 5.675 2.21875 5.125 2.21875C4.23125 2.21875 4.025 2.05625 3.13125 1.89375C1.6875 1.65 1 2.54375 1 3.35625C1 4.16875 1 5.0625 1 5.0625H2.375C2.375 5.0625 2.2375 3.6 3.0625 3.6C3.68125 3.6 3.68125 3.7625 5.05625 3.925C5.675 4.00625 6.15625 3.51875 6.5 3.03125C6.84375 3.51875 7.25625 4.00625 7.875 3.925C9.25 3.68125 9.25 3.6 9.86875 3.6C10.6937 3.6 10.625 5.0625 10.625 5.0625H12C12 5.0625 12 4.25 12 3.35625C12 2.4625 11.3125 1.65 9.86875 1.89375Z" fill="#444444"/>
<path d="M9.86875 12.2312C8.975 12.0687 8.76875 11.9062 7.875 11.9062C7.325 11.9062 6.84375 13.125 6.84375 13.125H6.15625C6.15625 13.125 5.675 11.9062 5.125 11.9062C4.23125 11.9062 4.025 12.0687 3.13125 12.2312C1.6875 12.475 1 11.5813 1 10.7688C1 9.95625 1 9.0625 1 9.0625H2.375C2.375 9.0625 2.2375 10.525 3.0625 10.525C3.68125 10.525 3.68125 10.3625 5.05625 10.2C5.675 10.1187 6.15625 10.6062 6.5 11.0938C6.84375 10.6062 7.25625 10.1187 7.875 10.2C9.25 10.3625 9.25 10.525 9.86875 10.525C10.6937 10.525 10.625 9.0625 10.625 9.0625H12C12 9.0625 12 9.875 12 10.7688C12 11.6625 11.3125 12.475 9.86875 12.2312Z" fill="#444444"/>
<path d="M9.86875 1.89375C8.975 2.05625 8.76875 2.21875 7.875 2.21875C7.325 2.21875 6.84375 1 6.84375 1H6.15625C6.15625 1 5.675 2.21875 5.125 2.21875C4.23125 2.21875 4.025 2.05625 3.13125 1.89375C1.6875 1.65 1 2.54375 1 3.35625C1 4.16875 1 5.0625 1 5.0625H2.375C2.375 5.0625 2.2375 3.6 3.0625 3.6C3.68125 3.6 3.68125 3.7625 5.05625 3.925C5.675 4.00625 6.15625 3.51875 6.5 3.03125C6.84375 3.51875 7.25625 4.00625 7.875 3.925C9.25 3.68125 9.25 3.6 9.86875 3.6C10.6937 3.6 10.625 5.0625 10.625 5.0625H12C12 5.0625 12 4.25 12 3.35625C12 2.4625 11.3125 1.65 9.86875 1.89375Z" stroke="black"/>
<path d="M9.86875 12.2312C8.975 12.0687 8.76875 11.9062 7.875 11.9062C7.325 11.9062 6.84375 13.125 6.84375 13.125H6.15625C6.15625 13.125 5.675 11.9062 5.125 11.9062C4.23125 11.9062 4.025 12.0687 3.13125 12.2312C1.6875 12.475 1 11.5813 1 10.7688C1 9.95625 1 9.0625 1 9.0625H2.375C2.375 9.0625 2.2375 10.525 3.0625 10.525C3.68125 10.525 3.68125 10.3625 5.05625 10.2C5.675 10.1187 6.15625 10.6062 6.5 11.0938C6.84375 10.6062 7.25625 10.1187 7.875 10.2C9.25 10.3625 9.25 10.525 9.86875 10.525C10.6937 10.525 10.625 9.0625 10.625 9.0625H12C12 9.0625 12 9.875 12 10.7688C12 11.6625 11.3125 12.475 9.86875 12.2312Z" stroke="black"/>
<circle cx="4.75" cy="6.25" r="0.75" fill="black" stroke="black"/>
<circle cx="8.25" cy="6.25" r="0.75" fill="black" stroke="black"/>
</svg>
