<svg width="13" height="15" viewBox="0 0 13 15" fill="none" xmlns="http://www.w3.org/2000/svg">
<path d="M9.86875 1.89375C8.975 2.05625 8.76875 2.21875 7.875 2.21875C7.325 2.21875 6.84375 1 6.84375 1H6.15625C6.15625 1 5.675 2.21875 5.125 2.21875C4.23125 2.21875 4.025 2.05625 3.13125 1.89375C1.6875 1.65 1 2.54375 1 3.35625C1 4.16875 1 5.0625 1 5.0625H2.375C2.375 5.0625 2.2375 3.6 3.0625 3.6C3.68125 3.6 3.68125 3.7625 5.05625 3.925C5.675 4.00625 6.15625 3.51875 6.5 3.03125C6.84375 3.51875 7.25625 4.00625 7.875 3.925C9.25 3.68125 9.25 3.6 9.86875 3.6C10.6937 3.6 10.625 5.0625 10.625 5.0625H12C12 5.0625 12 4.25 12 3.35625C12 2.4625 11.3125 1.65 9.86875 1.89375Z" fill="#444444"/>
<path d="M9.86875 12.2312C8.975 12.0687 8.76875 11.9062 7.875 11.9062C7.325 11.9062 6.84375 13.125 6.84375 13.125H6.15625C6.15625 13.125 5.675 11.9062 5.125 11.9062C4.23125 11.9062 4.025 12.0687 3.13125 12.2312C1.6875 12.475 1 11.5813 1 10.7688C1 9.95625 1 9.0625 1 9.0625H2.375C2.375 9.0625 2.2375 10.525 3.0625 10.525C3.68125 10.525 3.68125 10.3625 5.05625 10.2C5.675 10.1187 6.15625 10.6062 6.5 11.0938C6.84375 10.6062 7.25625 10.1187 7.875 10.2C9.25 10.3625 9.25 10.525 9.86875 10.525C10.6937 10.525 10.625 9.0625 10.625 9.0625H12C12 9.0625 12 9.875 12 10.7688C12 11.6625 11.3125 12.475 9.86875 12.2312Z" fill="#444444"/>
<path d="M5 6.25C5 6.38807 4.88807 6.5 4.75 6.5C4.61193 6.5 4.5 6.38807 4.5 6.25C4.5 6.11193 4.61193 6 4.75 6C4.88807 6 5 6.11193 5 6.25Z" fill="black"/>
<path d="M8.5 6.25C8.5 6.38807 8.38807 6.5 8.25 6.5C8.11193 6.5 8 6.38807 8 6.25C8 6.11193 8.11193 6 8.25 6C8.38807 6 8.5 6.11193 8.5 6.25Z" fill="black"/>
<path d="M9.78551 1.40073L9.78551 1.40069L9.77931 1.40181C9.41299 1.46842 9.17224 1.52846 8.97394 1.57792C8.6309 1.66347 8.41487 1.71734 7.89556 1.71872C7.88491 1.71304 7.86087 1.69813 7.82293 1.66273C7.74621 1.59115 7.66146 1.48028 7.57798 1.34575C7.49681 1.21494 7.42856 1.08093 7.38004 0.977717C7.35606 0.926704 7.33754 0.884602 7.32532 0.855978C7.31922 0.841696 7.31472 0.830859 7.31193 0.824044L7.30904 0.816941L7.30881 0.816363L7.30874 0.816199L7.30869 0.816062L7.30861 0.81587L7.30859 0.815808L7.18388 0.5H6.84375H6.15625H5.81612L5.69141 0.815808L5.69139 0.81587L5.69131 0.816062L5.69126 0.816199L5.69119 0.816363L5.69096 0.816941L5.68807 0.824044C5.68528 0.830859 5.68078 0.841696 5.67468 0.855978C5.66246 0.884602 5.64394 0.926704 5.61996 0.977717C5.57144 1.08093 5.50319 1.21494 5.42202 1.34575C5.33854 1.48028 5.25379 1.59115 5.17707 1.66273C5.13913 1.69813 5.11509 1.71304 5.10444 1.71872C4.58513 1.71734 4.36909 1.66347 4.02606 1.57792C3.82776 1.52846 3.58701 1.46842 3.22069 1.40181L3.2207 1.40178L3.21449 1.40073C2.37552 1.25908 1.68753 1.44071 1.20354 1.84528C0.728614 2.24229 0.5 2.81393 0.5 3.35625V3.43263V3.50931V3.5861V3.5909V3.5957V3.6005V3.6053V3.6101V3.6149V3.61969V3.62449V3.62929V3.63408V3.63888V3.64367V3.64847V3.65326V3.65805V3.66284V3.66763V3.67242V3.67721V3.682V3.68678V3.69157V3.69635V3.70113V3.70591V3.71069V3.71547V3.72025V3.72502V3.7298V3.73457V3.73934V3.74411V3.74888V3.75364V3.75841V3.76317V3.76793V3.77269V3.77745V3.7822V3.78695V3.7917V3.79645V3.8012V3.80594V3.81068V3.81542V3.82016V3.8249V3.82963V3.83436V3.83909V3.84381V3.84853V3.85325V3.85797V3.86268V3.8674V3.8721V3.87681V3.88151V3.88621V3.89091V3.89561V3.9003V3.90498V3.90967V3.91435V3.91903V3.9237V3.92838V3.93304V3.93771V3.94237V3.94703V3.95168V3.95633V3.96098V3.96563V3.97026V3.9749V3.97953V3.98416V3.98879V3.99341V3.99802V4.00264V4.00724V4.01185V4.01645V4.02105V4.02564V4.03022V4.03481V4.03939V4.04396V4.04853V4.0531V4.05766V4.06221V4.06677V4.07131V4.07585V4.08039V4.08492V4.08945V4.09398V4.09849V4.10301V4.10751V4.11202V4.11652V4.12101V4.1255V4.12998V4.13445V4.13893V4.14339V4.14785V4.15231V4.15676V4.1612V4.16564V4.18334V4.25317V4.28748V4.30447V4.32134V4.38766V4.51406V4.91016V4.97466V5.00076V5.02251V5.03974V5.0466V5.05226V5.05671V5.05847V5.05991V5.06185V5.06213V5.06234V5.06246V5.06249L1 5.0625H0.5V5.5625H1H2.375H2.92421L2.87291 5.01685L2.87291 5.01683C2.87291 5.01681 2.87289 5.01661 2.87288 5.01653C2.87287 5.01643 2.87286 5.01634 2.87285 5.01618C2.87284 5.01609 2.87285 5.0161 2.87284 5.016L2.87283 5.01595L2.87225 5.00857C2.87169 5.00116 2.87085 4.98902 2.86998 4.97283C2.86824 4.94034 2.86641 4.89226 2.86641 4.83398C2.86641 4.71477 2.87411 4.56537 2.90076 4.42365C2.92882 4.27446 2.96985 4.17795 3.00662 4.12906C3.02715 4.10177 3.03212 4.1 3.0625 4.1C3.30056 4.1 3.40723 4.12611 3.63426 4.18168C3.64171 4.18351 3.6493 4.18537 3.65702 4.18725C3.92107 4.25182 4.28463 4.33717 4.99463 4.4212C5.4616 4.48147 5.86055 4.32165 6.17274 4.09765C6.28782 4.01508 6.39413 3.92183 6.49188 3.82358C6.57979 3.91733 6.6752 4.00711 6.77865 4.08705C7.07987 4.31981 7.46778 4.48277 7.9401 4.42074L7.95123 4.41928L7.96228 4.41732C8.49561 4.32278 8.83155 4.25101 9.0663 4.20086C9.13778 4.18559 9.19987 4.17232 9.2553 4.16103C9.47463 4.11634 9.5958 4.1 9.86875 4.1C9.90129 4.1 9.91523 4.10421 9.94436 4.14066C9.9879 4.19514 10.0344 4.29626 10.0695 4.44565C10.1031 4.5884 10.1178 4.73834 10.1234 4.85746C10.1261 4.91576 10.1266 4.96384 10.1264 4.9963C10.1262 5.01247 10.126 5.02459 10.1258 5.03198L10.1256 5.03902L10.1255 5.03928L10.1255 5.03936L10.1255 5.03951C10.1255 5.03972 10.1255 5.03977 10.1255 5.03986L10.1255 5.04012L10.1255 5.04019L10.1009 5.5625H10.625H12H12.5V5.0625V5.06246V5.06242V5.06235V5.06227V5.06217V5.06205V5.06191V5.06175V5.06158V5.06138V5.06117V5.06094V5.06069V5.06043V5.06014V5.05984V5.05952V5.05918V5.05882V5.05845V5.05806V5.05765V5.05722V5.05677V5.05631V5.05583V5.05533V5.05481V5.05428V5.05373V5.05316V5.05257V5.05197V5.05134V5.0507V5.05005V5.04937V5.04868V5.04797V5.04725V5.0465V5.04574V5.04496V5.04417V5.04335V5.04253V5.04168V5.04082V5.03994V5.03904V5.03812V5.03719V5.03624V5.03528V5.0343V5.0333V5.03228V5.03125V5.0302V5.02914V5.02806V5.02696V5.02584V5.02471V5.02356V5.0224V5.02122V5.02002V5.01881V5.01758V5.01633V5.01507V5.01379V5.0125V5.01118V5.00986V5.00851V5.00716V5.00578V5.00439V5.00298V5.00156V5.00012V4.99867V4.9972V4.99571V4.99421V4.99269V4.99116V4.98961V4.98804V4.98646V4.98487V4.98325V4.98163V4.97998V4.97833V4.97665V4.97497V4.97326V4.97154V4.96981V4.96806V4.96629V4.96451V4.96272V4.96091V4.95908V4.95724V4.95539V4.95352V4.95163V4.94973V4.94782V4.94589V4.94394V4.94198V4.94001V4.93802V4.93602V4.934V4.93196V4.92992V4.92785V4.92578V4.92369V4.92158V4.91946V4.91733V4.91518V4.91302V4.91084V4.90865V4.90644V4.90422V4.90199V4.89974V4.89748V4.8952V4.89291V4.89061V4.88829V4.88596V4.88361V4.88125V4.87888V4.87649V4.87409V4.87168V4.86925V4.8668V4.86435V4.86188V4.8594V4.8569V4.85439V4.85187V4.84933V4.84678V4.84422V4.84164V4.83905V4.83644V4.83383V4.8312V4.82855V4.8259V4.82323V4.82055V4.81785V4.81514V4.81242V4.80969V4.80694V4.80418V4.8014V4.79862V4.79582V4.79301V4.79018V4.78735V4.7845V4.78164V4.77876V4.77587V4.77297V4.77006V4.76714V4.7642V4.76125V4.75829V4.75531V4.75233V4.74933V4.74632V4.7433V4.74026V4.73721V4.73415V4.73108V4.728V4.7249V4.72179V4.71868V4.71554V4.7124V4.70925V4.70608V4.7029V4.69971V4.69651V4.69329V4.69007V4.68683V4.68358V4.68032V4.67705V4.67377V4.67047V4.66717V4.66385V4.66052V4.65718V4.65383V4.65047V4.6471V4.64371V4.64031V4.63691V4.63349V4.63006V4.62662V4.62317V4.61971V4.61623V4.61275V4.60925V4.60575V4.60223V4.59871V4.59517V4.59162V4.58806V4.58449V4.58091V4.57732V4.57372V4.57011V4.56648V4.56285V4.55921V4.55555V4.55189V4.54822V4.54453V4.54084V4.53713V4.53342V4.52969V4.52596V4.52221V4.51846V4.51469V4.51091V4.50713V4.50333V4.49953V4.49571V4.49189V4.48806V4.48421V4.48036V4.47649V4.47262V4.46874V4.46485V4.46094V4.45703V4.45311V4.44918V4.44524V4.44129V4.43733V4.43337V4.42939V4.4254V4.42141V4.4174V4.41339V4.40936V4.40533V4.40129V4.39724V4.39318V4.38911V4.38504V4.38095V4.37686V4.37275V4.36864V4.36452V4.36039V4.35625V4.3521V4.34795V4.34378V4.33961V4.33543V4.33124V4.32704V4.32283V4.31862V4.3144V4.31016V4.30592V4.30167V4.29742V4.29315V4.28888V4.2846V4.28031V4.27601V4.27171V4.26739V4.26307V4.25874V4.2544V4.25006V4.24571V4.24134V4.23698V4.2326V4.22822V4.22382V4.21942V4.21502V4.2106V4.20618V4.20175V4.19731V4.19287V4.18842V4.18396V4.17949V4.17502V4.17054V4.16605V4.16155V4.15705V4.15254V4.14802V4.1435V4.13897V4.13443V4.12988V4.12533V4.12077V4.1162V4.11163V4.10705V4.10246V4.09787V4.09327V4.08866V4.08405V4.07943V4.0748V4.07017V4.06553V4.06088V4.05623V4.05157V4.0469V4.04223V4.03755V4.03287V4.02818V4.02348V4.01878V4.01407V4.00935V4.00463V3.9999V3.99517V3.99043V3.98568V3.98093V3.97617V3.97141V3.96664V3.96186V3.95708V3.9523V3.9475V3.9427V3.9379V3.93309V3.92828V3.92346V3.91863V3.9138V3.90896V3.90412V3.89927V3.89442V3.88956V3.88469V3.87982V3.87495V3.87007V3.86519V3.8603V3.8554V3.8505V3.84559V3.84068V3.83577V3.83085V3.82592V3.82099V3.81606V3.81112V3.80618V3.80123V3.79627V3.79132V3.78635V3.78138V3.77641V3.77144V3.76645V3.76147V3.75648V3.75148V3.74649V3.74148V3.73647V3.73146V3.72645V3.72143V3.7164V3.71137V3.70634V3.7013V3.69626V3.69122V3.68617V3.68112V3.67606V3.671V3.66593V3.66087V3.65579V3.65072V3.64564V3.64056V3.63547V3.63038V3.62528V3.62019V3.61509V3.60998V3.60487V3.59976V3.59465V3.58953V3.58441V3.57928V3.57415V3.56902V3.56389V3.55875V3.55361V3.54846V3.54332V3.53817V3.53301V3.52786V3.5227V3.51754V3.51237V3.5072V3.50203V3.49686V3.49168V3.4865V3.48132V3.47614V3.47095V3.46576V3.46057V3.45538V3.45018V3.44498V3.43978V3.43457V3.42937V3.42416V3.41895V3.41374V3.40852V3.4033V3.39808V3.39286V3.38764V3.38241V3.37718V3.37195V3.36672V3.36149V3.35625C12.5 2.7826 12.2775 2.20296 11.7898 1.80935C11.2992 1.41336 10.6105 1.26144 9.78551 1.40073ZM9.77931 12.7232L9.7793 12.7232L9.78551 12.7243C10.6105 12.8636 11.2992 12.7116 11.7898 12.3156C12.2775 11.922 12.5 11.3424 12.5 10.7688V10.7635V10.7583V10.753V10.7478V10.7426V10.7374V10.7321V10.7269V10.7217V10.7165V10.7113V10.7061V10.7008V10.6956V10.6904V10.6852V10.68V10.6748V10.6696V10.6644V10.6592V10.654V10.6489V10.6437V10.6385V10.6333V10.6281V10.623V10.6178V10.6126V10.6075V10.6023V10.5971V10.592V10.5868V10.5817V10.5765V10.5714V10.5663V10.5611V10.556V10.5508V10.5457V10.5406V10.5355V10.5304V10.5252V10.5201V10.515V10.5099V10.5048V10.4997V10.4946V10.4895V10.4844V10.4794V10.4743V10.4692V10.4641V10.4591V10.454V10.4489V10.4439V10.4388V10.4338V10.4287V10.4237V10.4187V10.4136V10.4086V10.4036V10.3986V10.3935V10.3885V10.3835V10.3785V10.3735V10.3685V10.3635V10.3585V10.3536V10.3486V10.3436V10.3386V10.3337V10.3287V10.3238V10.3188V10.3139V10.3089V10.304V10.2991V10.2942V10.2892V10.2843V10.2794V10.2745V10.2696V10.2647V10.2598V10.2549V10.2501V10.2452V10.2403V10.2354V10.2306V10.2257V10.2209V10.216V10.2112V10.2064V10.2015V10.1967V10.1919V10.1871V10.1823V10.1775V10.1727V10.1679V10.1631V10.1584V10.1536V10.1488V10.1441V10.1393V10.1346V10.1298V10.1251V10.1204V10.1156V10.1109V10.1062V10.1015V10.0968V10.0921V10.0874V10.0828V10.0781V10.0734V10.0688V10.0641V10.0595V10.0548V10.0502V10.0456V10.041V10.0363V10.0317V10.0271V10.0225V10.018V10.0134V10.0088V10.0042V9.99967V9.99512V9.99057V9.98604V9.9815V9.97698V9.97246V9.96795V9.96345V9.95895V9.95446V9.94998V9.94551V9.94104V9.93658V9.93213V9.92769V9.92325V9.91882V9.9144V9.90998V9.90558V9.90118V9.89678V9.8924V9.88802V9.88366V9.87929V9.87494V9.8706V9.86626V9.86193V9.85761V9.85329V9.84899V9.84469V9.8404V9.83612V9.83185V9.82758V9.82333V9.81908V9.81484V9.81061V9.80638V9.80217V9.79796V9.79376V9.78957V9.78539V9.78122V9.77705V9.7729V9.76875V9.76461V9.76048V9.75636V9.75225V9.74814V9.74405V9.73996V9.73589V9.73182V9.72776V9.72371V9.71967V9.71564V9.71161V9.7076V9.70359V9.6996V9.69561V9.69163V9.68767V9.68371V9.67976V9.67582V9.67189V9.66797V9.66406V9.66015V9.65626V9.65238V9.64851V9.64464V9.64079V9.63694V9.63311V9.62929V9.62547V9.62167V9.61787V9.61409V9.61031V9.60654V9.60279V9.59904V9.59531V9.59158V9.58787V9.58416V9.58047V9.57678V9.57311V9.56945V9.56579V9.56215V9.55852V9.55489V9.55128V9.54768V9.54409V9.54051V9.53694V9.53338V9.52983V9.52629V9.52277V9.51925V9.51575V9.51225V9.50877V9.50529V9.50183V9.49838V9.49494V9.49151V9.48809V9.48469V9.48129V9.47791V9.47453V9.47117V9.46782V9.46448V9.46115V9.45783V9.45453V9.45123V9.44795V9.44468V9.44142V9.43817V9.43493V9.43171V9.42849V9.42529V9.4221V9.41892V9.41575V9.4126V9.40946V9.40632V9.4032V9.4001V9.397V9.39392V9.39085V9.38779V9.38474V9.38171V9.37868V9.37567V9.37267V9.36969V9.36671V9.36375V9.3608V9.35786V9.35494V9.35203V9.34913V9.34624V9.34336V9.3405V9.33765V9.33482V9.33199V9.32918V9.32638V9.3236V9.32082V9.31806V9.31531V9.31258V9.30986V9.30715V9.30445V9.30177V9.2991V9.29645V9.2938V9.29117V9.28856V9.28595V9.28336V9.28078V9.27822V9.27567V9.27313V9.27061V9.2681V9.2656V9.26312V9.26065V9.25819V9.25575V9.25332V9.25091V9.24851V9.24612V9.24375V9.24139V9.23904V9.23671V9.23439V9.23209V9.2298V9.22752V9.22526V9.22301V9.22078V9.21856V9.21635V9.21416V9.21198V9.20982V9.20767V9.20554V9.20342V9.20131V9.19922V9.19715V9.19508V9.19304V9.191V9.18898V9.18698V9.18499V9.18302V9.18106V9.17911V9.17718V9.17527V9.17337V9.17148V9.16961V9.16776V9.16592V9.16409V9.16228V9.16049V9.15871V9.15694V9.15519V9.15346V9.15174V9.15003V9.14835V9.14667V9.14502V9.14337V9.14175V9.14013V9.13854V9.13696V9.13539V9.13384V9.13231V9.13079V9.12929V9.1278V9.12633V9.12488V9.12344V9.12202V9.12061V9.11922V9.11784V9.11649V9.11514V9.11382V9.1125V9.11121V9.10993V9.10867V9.10742V9.10619V9.10498V9.10378V9.1026V9.10144V9.10029V9.09916V9.09804V9.09694V9.09586V9.0948V9.09375V9.09272V9.0917V9.0907V9.08972V9.08876V9.08781V9.08688V9.08596V9.08506V9.08418V9.08332V9.08247V9.08165V9.08083V9.08004V9.07926V9.0785V9.07775V9.07703V9.07632V9.07563V9.07495V9.0743V9.07366V9.07303V9.07243V9.07184V9.07127V9.07072V9.07019V9.06967V9.06917V9.06869V9.06823V9.06778V9.06735V9.06694V9.06655V9.06618V9.06582V9.06548V9.06516V9.06486V9.06457V9.06431V9.06406V9.06383V9.06362V9.06342V9.06325V9.06309V9.06295V9.06283V9.06273V9.06265V9.06258V9.06254V9.0625V8.5625H12H10.625H10.1009L10.1255 9.08481L10.1255 9.08488L10.1255 9.08514C10.1255 9.08523 10.1255 9.08528 10.1255 9.08549C10.1255 9.08558 10.1255 9.08553 10.1255 9.08564L10.1255 9.08572L10.1256 9.08598L10.1258 9.09302C10.126 9.10041 10.1262 9.11253 10.1264 9.1287C10.1266 9.16116 10.1261 9.20924 10.1234 9.26754C10.1178 9.38666 10.1031 9.5366 10.0695 9.67935C10.0344 9.82874 9.9879 9.92986 9.94436 9.98434C9.91523 10.0208 9.90129 10.025 9.86875 10.025C9.63069 10.025 9.52402 9.99889 9.29699 9.94332C9.28954 9.94149 9.28195 9.93963 9.27423 9.93775C9.01017 9.87318 8.64659 9.78782 7.93654 9.70379C7.46583 9.64305 7.07912 9.80577 6.77865 10.038C6.6752 10.1179 6.57979 10.2077 6.49188 10.3014C6.39413 10.2032 6.28782 10.1099 6.17274 10.0274C5.86057 9.80336 5.46165 9.64355 4.99472 9.70379C4.28466 9.78782 3.92108 9.87318 3.65702 9.93775C3.6493 9.93963 3.64172 9.94149 3.63426 9.94332C3.40724 9.99889 3.30056 10.025 3.0625 10.025C3.03212 10.025 3.02715 10.0232 3.00662 9.99594C2.96985 9.94705 2.92882 9.85054 2.90076 9.70135C2.87411 9.55963 2.86641 9.41023 2.86641 9.29102C2.86641 9.23274 2.86824 9.18466 2.86998 9.15217C2.87085 9.13598 2.87169 9.12384 2.87225 9.11643L2.8728 9.1093L2.87283 9.10905L2.87284 9.109L2.87285 9.10882L2.87288 9.10847L2.87291 9.10815L2.92421 8.5625H2.375H1H0.5V9.0625V9.06254V9.06266V9.06287V9.06315V9.06396V9.06509V9.06653V9.06829V9.07274V9.0784V9.08168V9.08255V9.08344V9.08526V9.10249V9.12424V9.15034V9.21484V9.61094V9.73734V9.80366V9.87183V9.94166V9.95936V9.9638V9.96824V9.97269V9.97715V9.98161V9.98607V9.99055V9.99502V9.9995V10.004V10.0085V10.013V10.0175V10.022V10.0265V10.031V10.0355V10.0401V10.0446V10.0491V10.0537V10.0582V10.0628V10.0673V10.0719V10.0765V10.081V10.0856V10.0902V10.0948V10.0994V10.104V10.1086V10.1132V10.1178V10.1224V10.127V10.1316V10.1362V10.1408V10.1455V10.1501V10.1547V10.1594V10.164V10.1687V10.1733V10.178V10.1826V10.1873V10.192V10.1966V10.2013V10.206V10.2106V10.2153V10.22V10.2247V10.2294V10.2341V10.2388V10.2435V10.2482V10.2529V10.2576V10.2623V10.267V10.2717V10.2765V10.2812V10.2859V10.2906V10.2954V10.3001V10.3048V10.3096V10.3143V10.3191V10.3238V10.3285V10.3333V10.338V10.3428V10.3476V10.3523V10.3571V10.3618V10.3666V10.3714V10.3761V10.3809V10.3857V10.3904V10.3952V10.4V10.4048V10.4095V10.4143V10.4191V10.4239V10.4286V10.4334V10.4382V10.443V10.4478V10.4526V10.4574V10.4622V10.4669V10.4717V10.4765V10.4813V10.4861V10.4909V10.4957V10.5005V10.5053V10.5101V10.5149V10.5197V10.5245V10.5293V10.5341V10.5389V10.6157V10.6924V10.7688C0.5 11.3111 0.728614 11.8827 1.20354 12.2797C1.68753 12.6843 2.37552 12.8659 3.21449 12.7243L3.21449 12.7243L3.22069 12.7232C3.58701 12.6566 3.82775 12.5965 4.02606 12.5471C4.36909 12.4615 4.58513 12.4077 5.10444 12.4063C5.11509 12.412 5.13913 12.4269 5.17707 12.4623C5.25379 12.5338 5.33854 12.6447 5.42202 12.7793C5.50319 12.9101 5.57144 13.0441 5.61996 13.1473C5.64394 13.1983 5.66246 13.2404 5.67468 13.269C5.68078 13.2833 5.68528 13.2941 5.68807 13.301L5.69096 13.3081L5.69119 13.3086L5.69126 13.3088L5.69131 13.3089L5.69139 13.3091L5.69141 13.3092L5.81612 13.625H6.15625H6.84375H7.18388L7.30859 13.3092L7.30861 13.3091L7.30869 13.3089L7.30874 13.3088L7.30881 13.3086L7.30904 13.3081L7.31193 13.301C7.31472 13.2941 7.31922 13.2833 7.32532 13.269C7.33754 13.2404 7.35606 13.1983 7.38004 13.1473C7.42856 13.0441 7.49681 12.9101 7.57798 12.7793C7.66146 12.6447 7.74621 12.5338 7.82293 12.4623C7.86087 12.4269 7.88491 12.412 7.89556 12.4063C8.41487 12.4077 8.63091 12.4615 8.97394 12.5471C9.17225 12.5965 9.41299 12.6566 9.77931 12.7232ZM4.75 7C5.16421 7 5.5 6.66421 5.5 6.25C5.5 5.83579 5.16421 5.5 4.75 5.5C4.33579 5.5 4 5.83579 4 6.25C4 6.66421 4.33579 7 4.75 7ZM8.25 7C8.66421 7 9 6.66421 9 6.25C9 5.83579 8.66421 5.5 8.25 5.5C7.83579 5.5 7.5 5.83579 7.5 6.25C7.5 6.66421 7.83579 7 8.25 7Z" stroke="black"/>
</svg>
